<svg xmlns="http://www.w3.org/2000/svg" width="167" height="30" fill="none" overflow="visible"><g><path d="M 28.97 0.703 C 29.942 -0.222 31.472 -0.236 32.461 0.672 L 32.554 0.762 L 32.871 1.093 C 36.08 4.537 37.276 8.55 36.969 12.469 C 36.658 16.444 34.819 20.191 32.254 23.153 C 29.69 26.113 26.268 28.444 22.568 29.456 C 18.821 30.481 14.725 30.154 11.168 27.649 C 8.152 25.525 7.003 22.092 6.925 18.757 C 5.233 17.929 3.451 16.9 1.582 15.648 L 1.088 15.313 L 0.983 15.238 C -0.083 14.427 -0.317 12.926 0.453 11.834 C 1.227 10.74 2.725 10.434 3.871 11.136 L 3.981 11.206 L 4.43 11.512 C 5.55 12.262 6.618 12.912 7.633 13.473 C 8.289 11.179 9.375 8.977 10.805 7.162 C 12.948 4.442 16.161 2.267 20.097 2.592 C 23.642 2.884 26.262 4.708 27.614 7.283 C 28.924 9.776 28.943 12.775 27.799 15.354 C 26.632 17.983 24.263 20.173 20.856 21.076 C 18.405 21.726 15.533 21.681 12.292 20.812 L 12.292 20.812 C 10.905 20.434 9.55 19.95 8.237 19.366 C 7.92 19.228 7.645 19.441 8.237 19.81 C 9.906 20.991 12.256 21.981 12.936 22.313 C 13.238 22.81 13.639 23.24 14.113 23.579 C 16.216 25.06 18.676 25.331 21.214 24.637 C 23.799 23.93 26.39 22.226 28.399 19.906 C 30.407 17.587 31.702 14.809 31.916 12.083 C 32.117 9.512 31.373 6.871 29.131 4.469 L 28.91 4.238 L 28.822 4.143 C 27.935 3.142 28 1.625 28.97 0.703 Z M 19.675 7.575 C 18.049 7.441 16.333 8.295 14.808 10.23 C 13.647 11.704 12.768 13.619 12.319 15.589 C 15.511 16.678 17.889 16.685 19.542 16.248 C 21.455 15.741 22.602 14.593 23.154 13.349 C 23.729 12.055 23.67 10.644 23.113 9.583 C 22.599 8.604 21.564 7.731 19.676 7.575 Z" fill="rgb(245, 139, 74)"></path><path d="M 103.947 10.202 C 102.535 10.202 101.628 9.145 101.825 7.726 C 102.021 6.308 103.221 5.25 104.633 5.25 C 106.045 5.25 106.952 6.308 106.755 7.726 C 106.559 9.145 105.359 10.202 103.947 10.202 Z M 100.095 24.104 L 101.86 11.363 L 105.712 11.363 L 103.947 24.104 Z" fill="rgb(255, 255, 255)"></path><path d="M 114.703 10.875 C 118.735 10.875 121.177 13.635 120.608 17.736 C 119.994 22.172 116.414 24.287 113.537 24.287 C 112.023 24.287 110.821 23.693 110.182 22.559 L 109.235 29.393 L 105.383 29.393 L 107.002 17.71 C 107.595 13.429 110.825 10.875 114.703 10.875 Z M 114.228 14.486 C 112.482 14.486 111.125 15.75 110.872 17.581 C 110.618 19.412 111.624 20.676 113.371 20.676 C 115.116 20.676 116.473 19.412 116.727 17.581 C 116.981 15.75 115.974 14.486 114.228 14.486 Z" fill="rgb(255, 255, 255)"></path><path d="M 125.734 24.287 C 122.473 24.287 120.61 22.533 120.898 20.083 L 124.699 20.083 C 124.631 20.753 125.073 21.089 126.126 21.089 C 127.307 21.089 127.75 20.676 127.825 20.135 C 127.935 19.34 127.145 19.22 126.099 19.061 L 126.095 19.06 L 125.873 19.025 C 124.162 18.767 121.347 18.329 121.772 15.26 C 122.129 12.68 124.409 10.875 127.567 10.875 C 130.725 10.875 132.424 12.707 132.183 15.002 L 128.433 15.002 C 128.412 14.409 127.945 14.074 127.175 14.074 C 126.225 14.074 125.772 14.564 125.7 15.079 C 125.598 15.818 126.423 15.945 127.504 16.112 L 127.66 16.136 C 129.447 16.394 132.178 16.885 131.76 19.902 C 131.396 22.533 128.996 24.287 125.734 24.287 Z M 147.493 16.781 L 146.5 23.951 L 150.352 23.951 L 151.345 16.781 C 151.581 15.079 152.485 14.486 153.641 14.486 C 154.771 14.486 155.51 15.079 155.274 16.781 L 154.281 23.951 L 158.132 23.951 L 159.126 16.781 C 159.362 15.079 160.266 14.486 161.396 14.486 C 162.552 14.486 163.291 15.079 163.056 16.781 L 162.061 23.951 L 165.913 23.951 L 166.908 16.781 C 167.476 12.68 165.363 10.875 162.281 10.875 C 160.458 10.875 158.872 11.572 157.737 12.913 C 156.972 11.572 155.553 10.875 153.756 10.875 C 150.674 10.875 148.062 12.68 147.493 16.781 Z M 133.184 17.813 C 132.588 22.12 134.804 24.287 138.553 24.287 C 142.302 24.287 145.122 22.094 145.716 17.813 L 146.631 11.21 L 142.779 11.21 L 141.864 17.813 C 141.586 19.825 140.492 20.676 139.053 20.676 C 137.615 20.676 136.758 19.825 137.036 17.813 L 137.951 11.21 L 134.099 11.21 Z" fill="rgb(255, 255, 255)"></path><path d="M 93.78 10.875 C 97.786 10.875 100.217 13.712 99.681 17.582 C 99.145 21.45 95.927 24.287 91.921 24.287 C 87.915 24.287 85.483 21.45 86.019 17.581 C 86.555 13.712 89.774 10.875 93.78 10.875 Z M 93.279 14.486 C 91.533 14.486 90.176 15.75 89.922 17.581 C 89.669 19.412 90.675 20.676 92.421 20.676 C 94.167 20.676 95.524 19.412 95.778 17.581 C 96.032 15.75 95.025 14.486 93.279 14.486 Z M 73.755 23.089 C 72.198 21.905 71.427 19.934 71.753 17.581 C 72.289 13.712 75.507 10.876 79.513 10.876 C 83.519 10.876 85.95 13.712 85.415 17.581 C 84.897 21.318 81.876 24.092 78.061 24.277 C 78.96 24.79 80.265 25.205 81.224 25.51 C 81.545 25.612 81.826 25.701 82.042 25.778 C 82.913 25.997 83.469 26.812 83.334 27.784 C 83.176 28.924 82.129 29.848 80.993 29.848 L 74.829 29.848 C 72.56 29.848 70.976 28 71.291 25.721 L 77.865 25.721 C 76.363 25.137 74.775 23.97 73.755 23.089 Z M 78.155 20.676 C 79.901 20.676 81.258 19.412 81.511 17.581 C 81.765 15.75 80.759 14.486 79.012 14.486 C 77.267 14.486 75.91 15.75 75.656 17.581 C 75.402 19.412 76.409 20.676 78.155 20.676 Z M 65.246 10.875 C 69.252 10.875 71.685 13.712 71.148 17.582 C 70.612 21.45 67.394 24.287 63.388 24.287 C 59.383 24.287 56.95 21.45 57.486 17.581 C 58.022 13.712 61.24 10.875 65.246 10.875 Z M 64.746 14.486 C 63 14.486 61.644 15.75 61.39 17.581 C 61.136 19.412 62.142 20.676 63.889 20.676 C 65.635 20.676 66.991 19.412 67.245 17.581 C 67.498 15.75 66.492 14.486 64.746 14.486 Z" fill="rgb(255, 255, 255)"></path><path d="M 43.815 23.993 L 46.152 7.125 L 50.312 7.125 L 48.511 20.124 L 56.446 20.124 L 55.909 23.993 Z" fill="rgb(255, 255, 255)"></path></g></svg>